<?xml version="1.0" encoding="UTF-8" standalone="no"?>
<!-- Created with Inkscape (http://www.inkscape.org/) -->

<svg
        xmlns:inkscape="http://www.inkscape.org/namespaces/inkscape"
        xmlns:sodipodi="http://sodipodi.sourceforge.net/DTD/sodipodi-0.dtd"
        width="456"
        height="456"
        viewBox="0 0 195 310"
        version="1.1"
        id="svg1"
        inkscape:version="1.4.2 (ebf0e94, 2025-05-08)"
        sodipodi:docname="appicon.svg"
        xmlns="http://www.w3.org/2000/svg"
>
    <sodipodi:namedview
            id="namedview1"
            pagecolor="#ffffff"
            bordercolor="#000000"
            borderopacity="0.25"
            inkscape:showpageshadow="2"
            inkscape:pageopacity="0.0"
            inkscape:pagecheckerboard="0"
            inkscape:deskcolor="#d1d1d1"
            inkscape:document-units="mm"
            inkscape:zoom="0.70733726"
            inkscape:cx="242.4586"
            inkscape:cy="538.6398"
            inkscape:window-width="1920"
            inkscape:window-height="1005"
            inkscape:window-x="0"
            inkscape:window-y="0"
            inkscape:window-maximized="1"
            inkscape:current-layer="layer1"/>
    <defs
            id="defs1">
        <rect
                x="319.50812"
                y="189.44287"
                width="57.963863"
                height="385.9545"
                id="rect12"/>
    </defs>
    <g
            inkscape:label="Layer 1"
            inkscape:groupmode="layer"
            id="layer1">
        <text
                xml:space="preserve"
                transform="scale(0.26458333)"
                id="text12"
                style="fill:#ff00ff;text-orientation:auto;text-align:start;writing-mode:lr-tb;direction:ltr;stroke:#f4d7d7;white-space:pre;shape-inside:url(#rect12)"/>
        <path
                style="fill:#ff00ff;stroke:#f4d7d7;stroke-width:0.264583"
                d="m 36.283376,136.90428 c 0,0 -25.435769,-19.07682 -3.740555,-39.275817 21.695214,-20.198993 10.847607,-6.358942 1.870278,6.732997 -9.367618,13.66111 1.870277,32.54282 1.870277,32.54282 z"
                id="path13"
                sodipodi:nodetypes="cssc"/>
        <path
                style="fill:#ff00ff;stroke:#f4d7d7;stroke-width:0.264583"
                d="m 57.230478,85.658689 c 0,0 34.787154,-14.962216 24.687656,18.328721 -10.099495,33.29093 -12.717883,31.42065 -26.183878,28.4282 -13.465995,-2.99244 -10.099495,-42.268257 3.366498,-42.642312 13.465995,-0.374054 14.588161,4.11461 16.45844,7.855165 1.870276,3.740557 -2.244333,29.176317 -8.229219,26.931987 -5.984888,-2.24433 -22.069271,-12.71788 -10.847607,-25.809821 11.221662,-13.09194 7.107052,16.084381 4.488664,9.351381 -2.618388,-6.73299 -10.473552,-4.86272 -5.236776,0.74811 5.236776,5.61084 13.091941,-3.36649 13.84005,-3.74055 0.748112,-0.37406 0,-13.465995 -6.35894,-11.969771 -6.358943,1.496221 -9.725442,1.49622 -11.595719,11.969781 -1.001555,5.60871 -6.358943,12.34382 1.122166,17.20654 7.481107,4.86272 5.984886,8.22922 12.717883,4.86272 6.732998,-3.3665 29.550379,-36.657429 -8.229218,-41.520151 z"
                id="path14"
                sodipodi:nodetypes="csssssssssssssc"/>
        <path
                style="fill:#ff00ff;stroke:#f4d7d7;stroke-width:0.264583"
                d="m 105.48363,86.032744 c 0,0 -33.290936,43.390426 0.74811,39.649876 34.03904,-3.74056 -32.916879,10.09949 -0.74811,-39.649876 z"
                id="path15"
                sodipodi:nodetypes="csc"/>
        <path
                style="fill:#ff00ff;stroke:#f4d7d7;stroke-width:0.264583"
                d="m 123.81234,88.277077 c 0,0 -12.78138,33.540433 -1.12217,32.168763 12.71789,-1.49622 26.93199,-59.848863 20.57305,-23.56549 -6.35894,36.28338 -5.61083,34.4131 0,26.93199 5.61083,-7.48111 14.96222,-59.100753 5.23678,-50.123425 -9.72544,8.977331 -19.82494,44.512595 -23.56549,41.520155 -3.74056,-2.99245 -1.12217,-26.931993 -1.12217,-26.931993 z"
                id="path16"
                sodipodi:nodetypes="csssssc"/>
        <path
                style="fill:#ff00ff;stroke:#f4d7d7;stroke-width:0.264583"
                d="m 37.405542,162.34005 c 0,0 -18.702771,-25.06171 -18.702771,-17.95466 0,7.10705 43.016371,43.39043 32.542821,56.10831 -10.473552,12.71788 -32.916877,6.35894 -32.916877,6.35894 0,0 9.351384,2.99244 14.588161,-5.61083 5.236776,-8.60327 39.275818,-55.3602 28.054156,-43.39043 -11.221661,11.96978 -26.93199,35.53527 -26.93199,35.53527 l -14.588161,13.46599 c 0,0 24.313602,5.23678 32.168766,0 7.855164,-5.23677 3.366497,-16.08438 3.366497,-16.08438 z"
                id="path17"/>
        <path
                style="fill:#ff00ff;stroke:#f4d7d7;stroke-width:0.264583"
                d="m 80.795968,160.46977 c 0,0 -6.732998,42.64232 17.206549,19.07683 23.939543,-23.56549 11.969773,-22.81738 11.969773,-22.81738 0,0 -9.72544,58.35264 -31.420653,59.47481 -21.695214,1.12216 -16.832495,-13.09194 -11.969774,-8.97733 4.862722,4.11461 5.236776,8.97733 14.214105,4.48866 8.97733,-4.48866 16.084383,-20.19899 16.084383,-20.19899 0,0 -28.802266,-3.3665 -16.084383,-31.0466 z"
                id="path18"
                sodipodi:nodetypes="cscssscc"/>
        <path
                style="fill:#ff00ff;stroke:#f4d7d7;stroke-width:0.264583"
                d="m 134.28589,163.46221 c 0,0 -35.161206,38.52771 -16.45843,42.26827 18.70276,3.74055 25.43576,-23.19144 25.43576,-23.19144 0,0 -16.45844,39.27582 -2.24433,26.18388 14.2141,-13.09194 -0.37406,0 -1.12217,-2.24433 -0.74811,-2.24434 8.22922,-29.92444 8.22922,-29.92444 l -5.23677,5.98489 c 0,0 -40.39799,43.01637 -8.60328,-19.07683 z"
                id="path19"
                sodipodi:nodetypes="cscssccc"/>
        <path
                style="fill:#ff00ff;stroke:#f4d7d7;stroke-width:0.264583"
                d="m 139.52267,147.37783 c 0,0 -5.98489,36.65743 1.87028,17.95466 7.85516,-18.70277 11.96977,-1.49622 11.96977,-1.49622 l -3.74056,-14.2141 c 0,0 -14.96221,22.06926 -10.09949,-2.24434 z"
                id="path20"
                sodipodi:nodetypes="csccc"/>
    </g>
</svg>
